{
	"asset":{
		"version":"2.0",
		"generator":"Created using the official Cinema 4D glTF Exporter 1.000x284978"
	},
	"scenes":[{
		"nodes":[0]
	}],
	"nodes":[{
		"name":"icon",
		"mesh":0
	}],
	"meshes":[{
		"name":"icon",
		"primitives":[{
			"attributes":{
				"POSITION":1,
				"NORMAL":2,
				"TEXCOORD_0":3
			},
			"indices":0,
			"material":0
		}]
	}],
	"accessors":[{
		"min":[0],
		"bufferView":0,
		"count":114666,
		"type":"SCALAR",
		"componentType":5123,
		"byteOffset":0,
		"max":[19112]
	},
	{
		"min":[-1250.0,
		-1250.0,
		-1250.0],
		"bufferView":1,
		"count":19113,
		"type":"VEC3",
		"componentType":5126,
		"byteOffset":0,
		"max":[1250.0,
		1250.0,
		1250.0]
	},
	{
		"min":[-1.0,
		-1.0,
		-1.0],
		"bufferView":1,
		"count":19113,
		"type":"VEC3",
		"componentType":5126,
		"byteOffset":12,
		"max":[1.0,
		1.0,
		1.0]
	},
	{
		"min":[0.002391362562775612,
		0.007835013791918755],
		"bufferView":1,
		"count":19113,
		"type":"VEC2",
		"componentType":5126,
		"byteOffset":24,
		"max":[0.9958868026733398,
		0.9921138286590576]
	}],
	"bufferViews":[{
		"buffer":0,
		"byteOffset":0,
		"byteLength":229332,
		"target":34963
	},
	{
		"buffer":0,
		"byteOffset":229332,
		"byteLength":611616,
		"target":34962,
		"byteStride":32
	}],
	"buffers":[{
		"uri":"data:application/octet-stream;base64,",
		"byteLength":840948
	}],
	"materials":[{
		"pbrMetallicRoughness":{
			"baseColorFactor":[0.8,
			0.8,
			0.8,
			1.0],
			"metallicFactor":0.1,
			"roughnessFactor":0.58
		},
		"emissiveFactor":[0.0,
		0.0,
		0.0],
		"name":"Mat",
		"alphaMode":"OPAQUE",
		"doubleSided":false
	}]
}